<svg width="301" height="295" viewBox="0 0 301 295" fill="none" xmlns="http://www.w3.org/2000/svg">
<path d="M160.201 19.9208L137.944 47.1242C129.455 57.4996 114.112 58.9095 103.875 50.2549L76.7052 27.2868C66.2316 18.4328 50.481 20.1406 42.1485 31.0339L0 86.1354V164V270.5L32.3791 244.744C55.3167 226.498 80.2063 240.248 93.6745 261.34C106.982 282.179 137.521 281.869 150.402 260.763C162.824 240.409 191.949 239.225 205.982 258.504L218.287 275.411C242.416 308.561 277.265 292.301 301 270.5V0L249.636 40.6991C240.298 48.0984 226.945 47.5269 218.273 39.3567L195.234 17.6502C185.106 8.10827 169.013 9.15135 160.201 19.9208Z" fill="#FFE136"/>
</svg>
