<svg width="353" height="377" viewBox="0 0 353 377" fill="none" xmlns="http://www.w3.org/2000/svg">
<path d="M1.74986 173.215L4.55467 156.462C12.2264 110.64 67.1712 91.2302 101.94 122.06L103.726 95.4667C104.685 81.1882 108.888 62.2451 117.279 45C127.53 23.9325 144.03 5.39906 168.5 0.999937C190.512 -2.95739 214.721 11.4989 232.079 34C249.813 56.987 260.396 88.3702 254.185 117.094L251.01 131.774L269.149 133.274C298.16 135.674 322.259 151.289 336.916 173.215C351.87 195.587 356.996 224.528 347.481 252.705C338.899 278.12 320.378 296.875 298 306.591C273.582 317.193 244.572 317.032 218.876 303.016L206.634 296.339L206.66 297.396C207.358 326.873 191.578 352.113 168.5 365.733C152.448 375.206 132.866 379.056 112.843 374.8C52.4201 361.954 30.2008 286.24 74.981 243.735C32.652 252.622 -5.40842 215.971 1.74986 173.215Z" fill="#F7A416"/>
</svg>
