<svg width="371" height="362" viewBox="0 0 371 362" fill="none" xmlns="http://www.w3.org/2000/svg">
<path d="M60.5 40.7527C86.2996 90.4799 95.0387 121.71 82.845 141.5C72.1628 158.837 45.4156 167.393 0 171.913C44.094 185.901 73.9528 201.827 75.1393 226.5C75.9326 242.999 63.9054 263.409 34.741 289.767C76.7548 279.777 105.27 275.655 123.256 289.767C137.294 300.78 144.919 322.899 147.542 362C173.321 328.683 193.822 310.188 215.524 312.354C233.214 314.12 251.702 329.614 274.497 362C271.343 318.825 272.249 292.087 285.5 274.785C298.792 257.432 324.504 249.573 371 244.146C332.803 225.058 313.925 207.207 313.175 187.5C312.377 166.517 332.13 143.431 371 114.507C338.762 122.187 307.844 125.114 290.154 114.507C273.436 104.482 268.534 82.3681 285.5 40.7527C257.906 63.8255 233.54 73.6497 215.524 65.5C199.878 58.4221 189.021 37.7872 185 0.5C180.316 46.0485 168.284 68.7429 147.542 73.5143C127.271 78.1773 98.6813 65.7226 60.5 40.7527Z" fill="#09C35D"/>
</svg>
