<svg width="246" height="246" viewBox="0 0 246 246" fill="none" xmlns="http://www.w3.org/2000/svg">
<path d="M17.1703 45.4731C20.0557 31.0056 28.3353 18.9879 39.5 11.0948C51.4789 2.62604 66.7791 -1.09469 82.3016 2.00103L132.5 12.0123L166.59 18.811L200.679 25.6097C217.054 28.8754 230.291 39.0515 237.96 52.5C244.338 63.6818 246.867 77.1259 244.151 90.7409L236.711 128.046L229.271 165.351C225.687 183.322 217.495 199.199 206.169 212C199.97 219.005 192.834 225.089 185 230.089C174.66 236.69 163.106 241.404 150.894 243.862C138.307 246.394 125.022 246.53 111.644 243.862L80.8009 237.711C53.7111 232.308 31.3773 216.433 17.1703 195.136C2.97269 173.853 -3.10871 147.156 2.29041 120.084L9.73038 82.7783L17.1703 45.4731Z" fill="#FF86EF"/>
</svg>
