<svg width="299" height="312" viewBox="0 0 299 312" fill="none" xmlns="http://www.w3.org/2000/svg">
<path d="M99.1459 29L165.521 58L231.897 87L298.272 116C293.577 130.084 288.527 147.461 282.483 166C278.768 177.393 274.678 189.224 270.064 201C261.39 223.137 250.864 245.076 237.5 263.531C229.568 274.484 220.637 284.21 210.5 292.021C202.183 298.43 193.054 303.551 183 307.003C173.598 310.231 163.386 312 152.272 312C130.771 312 109.739 308.433 90.5 301.48C65.6788 292.509 43.8438 277.9 27.8427 258.039C16.6226 244.113 8.27096 227.604 3.7697 208.646C0.667367 195.579 -0.605987 181.35 0.27108 166C1.19495 149.831 2.37793 136.044 3.7697 124C5.31264 110.648 7.11219 99.4379 9.0998 89.5C13.0889 69.5546 17.8356 54.7331 22.7857 38C26.0784 26.8694 29.4611 14.8929 32.7706 0L99.1459 29Z" fill="#47A0F3"/>
</svg>
