<svg width="357" height="305" viewBox="0 0 357 305" fill="none" xmlns="http://www.w3.org/2000/svg">
<path fill-rule="evenodd" clip-rule="evenodd" d="M111 254C90.1664 268.368 67.9815 274.716 49 273.2C17.0185 270.645 -5.86928 245.765 2.121 199.304C4.91991 183.03 9.5391 163.225 16.5893 142.5C26.747 112.641 41.951 80.8717 64.0278 55C75.9267 41.0557 89.8221 28.8246 106 19.5288C124.405 8.9533 145.765 2.17705 170.5 0.999914C189.952 0.074163 207.768 3.2406 224 9.46177C240.111 15.6366 254.662 24.8208 267.705 36C283.478 49.5191 297.046 65.9556 308.5 83.5156C319.685 100.663 328.854 118.881 336.095 136.5C345.591 159.61 351.768 181.688 354.819 198.967C358.236 218.318 357.496 240.521 351.554 259.5C348.161 270.334 343.073 280.118 336.095 287.72C328.948 295.506 319.82 301.004 308.5 303C289.092 306.423 269.525 303.248 251.5 295.532C230.762 286.655 212.065 271.767 198 254C186.716 239.746 173.492 231.842 155.5 234.057C143.197 235.571 128.665 241.817 111 254Z" fill="#7C47B2"/>
</svg>
